<?xml version="1.0" encoding="iso-8859-1"?>
<!-- Uploaded to: SVG Repo, www.svgrepo.com, Generator: SVG Repo Mixer Tools -->
<svg height="800px" width="800px" version="1.1" id="Layer_1" xmlns="http://www.w3.org/2000/svg" xmlns:xlink="http://www.w3.org/1999/xlink" 
	 viewBox="0 0 512 512" xml:space="preserve">
<path style="fill:#AA3827;" d="M343.772,36.572c-12.118,0-21.943,9.825-21.943,21.943V102.4c0,12.118,9.825,21.943,21.943,21.943
	c12.118,0,21.943-9.825,21.943-21.943V58.515C365.715,46.396,355.89,36.572,343.772,36.572z"/>
<path style="fill:#89D2E8;" d="M446.172,212.115h-102.4c-12.118,0-21.943,9.825-21.943,21.943H190.172
	c0-12.118-9.825-21.943-21.943-21.943h-102.4c-12.118,0-21.943,9.825-21.943,21.943v219.429c0,12.118,9.825,21.943,21.943,21.943
	h380.343c12.118,0,21.943-9.825,21.943-21.943V234.057C468.115,221.939,458.29,212.115,446.172,212.115z"/>
<path style="fill:#7AC0DE;" d="M446.172,212.115h-102.4c-12.118,0-21.943,9.825-21.943,21.943H256v241.371h190.171
	c12.118,0,21.943-9.825,21.943-21.943V234.057C468.115,221.939,458.29,212.115,446.172,212.115z"/>
<path style="fill:#DA3981;" d="M510.109,225.146L451.594,93.489c-3.521-7.924-11.38-13.031-20.051-13.031H80.457
	c-8.672,0-16.53,5.107-20.051,13.031L1.892,225.146c-3.018,6.788-2.395,14.64,1.653,20.869C7.592,252.244,14.516,256,21.943,256
	h146.274c12.118,0,21.943-9.825,21.943-21.943h131.669c0,12.118,9.825,21.943,21.943,21.943h146.286
	c7.427,0,14.351-3.757,18.398-9.985C512.503,239.786,513.127,231.933,510.109,225.146z"/>
<path style="fill:#A91E62;" d="M343.772,256h146.286c7.427,0,14.351-3.757,18.398-9.985c4.048-6.229,4.669-14.081,1.653-20.869
	L451.594,93.488c-3.521-7.924-11.38-13.031-20.051-13.031H256v153.6h65.829C321.829,246.176,331.653,256,343.772,256z"/>
<path style="fill:#D5F4FA;" d="M356.937,216.503l-87.771-65.829c-7.803-5.851-18.529-5.851-26.331,0l-87.771,65.829
	c-5.525,4.144-8.777,10.648-8.777,17.554v219.429c0,12.118,9.825,21.943,21.943,21.943h175.543c12.118,0,21.943-9.825,21.943-21.943
	V234.057C365.715,227.151,362.463,220.647,356.937,216.503z"/>
<path style="fill:#C0FCFF;" d="M356.937,216.503l-87.771-65.829c-3.901-2.926-8.534-4.389-13.166-4.389v329.143h87.771
	c12.118,0,21.943-9.825,21.943-21.943V234.057C365.715,227.151,362.463,220.647,356.937,216.503z"/>
<path style="fill:#B66D38;" d="M490.057,431.543H277.943v-21.952c0-12.118-9.825-21.943-21.943-21.943
	c-12.118,0-21.943,9.825-21.943,21.943v21.952H21.943C9.825,431.543,0,441.368,0,453.486c0,12.118,9.825,21.943,21.943,21.943
	h468.114c12.118,0,21.943-9.825,21.943-21.943C512,441.368,502.176,431.543,490.057,431.543z"/>
<path style="fill:#AA3827;" d="M490.057,431.543H277.943v-21.952c0-12.118-9.825-21.943-21.943-21.943v87.78h234.057
	c12.118,0,21.943-9.825,21.943-21.943C512,441.368,502.176,431.543,490.057,431.543z"/>
</svg>